<?xml version="1.0" standalone="no"?><svg xmlns="http://www.w3.org/2000/svg" viewBox="0 0 1440 320"><path fill="#94B49F" fill-opacity="2" d="M0,192L15,186.7C30,181,60,171,90,165.3C120,160,150,160,180,170.7C210,181,240,203,270,197.3C300,192,330,160,360,170.7C390,181,420,235,450,234.7C480,235,510,181,540,181.3C570,181,600,235,630,256C660,277,690,267,720,229.3C750,192,780,128,810,101.3C840,75,870,85,900,80C930,75,960,53,990,53.3C1020,53,1050,75,1080,74.7C1110,75,1140,53,1170,74.7C1200,96,1230,160,1260,176C1290,192,1320,160,1350,154.7C1380,149,1410,171,1425,181.3L1440,192L1440,320L1425,320C1410,320,1380,320,1350,320C1320,320,1290,320,1260,320C1230,320,1200,320,1170,320C1140,320,1110,320,1080,320C1050,320,1020,320,990,320C960,320,930,320,900,320C870,320,840,320,810,320C780,320,750,320,720,320C690,320,660,320,630,320C600,320,570,320,540,320C510,320,480,320,450,320C420,320,390,320,360,320C330,320,300,320,270,320C240,320,210,320,180,320C150,320,120,320,90,320C60,320,30,320,15,320L0,320Z"></path></svg>